<?xml version="1.0" encoding="UTF-8" standalone="no"?>
<!DOCTYPE svg PUBLIC "-//W3C//DTD SVG 1.1//EN"
 "http://www.w3.org/Graphics/SVG/1.1/DTD/svg11.dtd">
<!-- Generated by graphviz version 5.0.0 (20220707.1540)
 -->
<!-- Title: UmlClassDiagram Pages: 1 -->
<svg width="1593pt" height="497pt"
 viewBox="0.00 0.00 1593.34 497.20" xmlns="http://www.w3.org/2000/svg" xmlns:xlink="http://www.w3.org/1999/xlink">
<g id="graph0" class="graph" transform="scale(1 1) rotate(0) translate(4 493.2)">
<title>UmlClassDiagram</title>
<polygon fill="white" stroke="transparent" points="-4,4 -4,-493.2 1589.34,-493.2 1589.34,4 -4,4"/>
<!-- 0 -->
<g id="node1" class="node">
<title>0</title>
<polygon fill="#f2f2f2" stroke="black" points="29.97,-229.5 29.97,-488.7 415.7,-488.7 415.7,-229.5 29.97,-229.5"/>
<text text-anchor="middle" x="222.83" y="-472.1" font-family="Times,serif" font-size="14.00">FarmVault</text>
<text text-anchor="middle" x="222.83" y="-455.3" font-family="Times,serif" font-size="14.00">contractsFarmVault.sol</text>
<polyline fill="none" stroke="black" points="29.97,-447.1 415.7,-447.1 "/>
<text text-anchor="start" x="37.97" y="-430.5" font-family="Times,serif" font-size="14.00">Public:</text>
<text text-anchor="start" x="37.97" y="-413.7" font-family="Times,serif" font-size="14.00"> &#160;&#160;token: IERC20</text>
<text text-anchor="start" x="37.97" y="-396.9" font-family="Times,serif" font-size="14.00"> &#160;&#160;farmer: address</text>
<text text-anchor="start" x="37.97" y="-380.1" font-family="Times,serif" font-size="14.00"> &#160;&#160;RELEASER_ROLE: bytes32</text>
<polyline fill="none" stroke="black" points="29.97,-371.9 415.7,-371.9 "/>
<text text-anchor="start" x="37.97" y="-355.3" font-family="Times,serif" font-size="14.00">External:</text>
<text text-anchor="start" x="37.97" y="-338.5" font-family="Times,serif" font-size="14.00"> &#160;&#160;&#160;&lt;&lt;payable&gt;&gt; null()</text>
<text text-anchor="start" x="37.97" y="-321.7" font-family="Times,serif" font-size="14.00"> &#160;&#160;&#160;tokenBalance(): uint256</text>
<text text-anchor="start" x="37.97" y="-304.9" font-family="Times,serif" font-size="14.00"> &#160;&#160;&#160;release(amount: uint256) &lt;&lt;onlyRole&gt;&gt;</text>
<text text-anchor="start" x="37.97" y="-288.1" font-family="Times,serif" font-size="14.00">Public:</text>
<text text-anchor="start" x="37.97" y="-271.3" font-family="Times,serif" font-size="14.00"> &#160;&#160;&#160;&lt;&lt;event&gt;&gt; Received(from: address, amount: uint256)</text>
<text text-anchor="start" x="37.97" y="-254.5" font-family="Times,serif" font-size="14.00"> &#160;&#160;&#160;&lt;&lt;event&gt;&gt; Released(to: address, amount: uint256)</text>
<text text-anchor="start" x="37.97" y="-237.7" font-family="Times,serif" font-size="14.00"> &#160;&#160;&#160;constructor(_token: IERC20, _farmer: address, admin: address)</text>
</g>
<!-- 1 -->
<g id="node2" class="node">
<title>1</title>
<polygon fill="#f2f2f2" stroke="black" points="0,-0.5 0,-192.5 445.67,-192.5 445.67,-0.5 0,-0.5"/>
<text text-anchor="middle" x="222.83" y="-175.9" font-family="Times,serif" font-size="14.00">FarmVaultFactory</text>
<text text-anchor="middle" x="222.83" y="-159.1" font-family="Times,serif" font-size="14.00">contractsFarmVaultFactory.sol</text>
<polyline fill="none" stroke="black" points="0,-150.9 445.67,-150.9 "/>
<text text-anchor="start" x="8" y="-134.3" font-family="Times,serif" font-size="14.00">Public:</text>
<text text-anchor="start" x="8" y="-117.5" font-family="Times,serif" font-size="14.00"> &#160;&#160;token: IERC20</text>
<text text-anchor="start" x="8" y="-100.7" font-family="Times,serif" font-size="14.00"> &#160;&#160;vaultOf: mapping(uint256=&gt;address)</text>
<polyline fill="none" stroke="black" points="0,-92.5 445.67,-92.5 "/>
<text text-anchor="start" x="8" y="-75.9" font-family="Times,serif" font-size="14.00">External:</text>
<text text-anchor="start" x="8" y="-59.1" font-family="Times,serif" font-size="14.00"> &#160;&#160;&#160;createVault(farmId: uint256, farmer: address): address &lt;&lt;onlyRole&gt;&gt;</text>
<text text-anchor="start" x="8" y="-42.3" font-family="Times,serif" font-size="14.00">Public:</text>
<text text-anchor="start" x="8" y="-25.5" font-family="Times,serif" font-size="14.00"> &#160;&#160;&#160;&lt;&lt;event&gt;&gt; VaultCreated(farmId: uint256, vault: address, farmer: address)</text>
<text text-anchor="start" x="8" y="-8.7" font-family="Times,serif" font-size="14.00"> &#160;&#160;&#160;constructor(_token: IERC20)</text>
</g>
<!-- 1&#45;&gt;0 -->
<g id="edge1" class="edge">
<title>1&#45;&gt;0</title>
<path fill="none" stroke="black" stroke-dasharray="5,2" d="M222.83,-192.69C222.83,-201.35 222.83,-210.24 222.83,-219.18"/>
<polygon fill="black" stroke="black" points="219.33,-219.29 222.83,-229.29 226.33,-219.29 219.33,-219.29"/>
</g>
<!-- 2 -->
<g id="node3" class="node">
<title>2</title>
<polygon fill="#f2f2f2" stroke="black" points="496.41,-0.5 496.41,-192.5 1015.26,-192.5 1015.26,-0.5 496.41,-0.5"/>
<text text-anchor="middle" x="755.83" y="-175.9" font-family="Times,serif" font-size="14.00">MaronToken</text>
<text text-anchor="middle" x="755.83" y="-159.1" font-family="Times,serif" font-size="14.00">contractsMaronToken.sol</text>
<polyline fill="none" stroke="black" points="496.41,-150.9 1015.26,-150.9 "/>
<text text-anchor="start" x="504.41" y="-134.3" font-family="Times,serif" font-size="14.00">Public:</text>
<text text-anchor="start" x="504.41" y="-117.5" font-family="Times,serif" font-size="14.00"> &#160;&#160;MINTER_ROLE: bytes32</text>
<polyline fill="none" stroke="black" points="496.41,-109.3 1015.26,-109.3 "/>
<text text-anchor="start" x="504.41" y="-92.7" font-family="Times,serif" font-size="14.00">External:</text>
<text text-anchor="start" x="504.41" y="-75.9" font-family="Times,serif" font-size="14.00"> &#160;&#160;&#160;mintToVaultForDonor(donor: address, vault: address, amount: uint256) &lt;&lt;onlyRole&gt;&gt;</text>
<text text-anchor="start" x="504.41" y="-59.1" font-family="Times,serif" font-size="14.00"> &#160;&#160;&#160;burnFromFarmer(farmer: address, amount: uint256) &lt;&lt;onlyRole&gt;&gt;</text>
<text text-anchor="start" x="504.41" y="-42.3" font-family="Times,serif" font-size="14.00">Public:</text>
<text text-anchor="start" x="504.41" y="-25.5" font-family="Times,serif" font-size="14.00"> &#160;&#160;&#160;&lt;&lt;event&gt;&gt; DonationRecorded(donor: address, vault: address, amount: uint256)</text>
<text text-anchor="start" x="504.41" y="-8.7" font-family="Times,serif" font-size="14.00"> &#160;&#160;&#160;constructor()</text>
</g>
<!-- 3 -->
<g id="node4" class="node">
<title>3</title>
<polygon fill="#f2f2f2" stroke="black" points="434.12,-283.9 434.12,-434.3 677.54,-434.3 677.54,-283.9 434.12,-283.9"/>
<text text-anchor="middle" x="555.83" y="-417.7" font-family="Times,serif" font-size="14.00">&lt;&lt;Interface&gt;&gt;</text>
<text text-anchor="middle" x="555.83" y="-400.9" font-family="Times,serif" font-size="14.00">IERC20Metadata</text>
<text text-anchor="middle" x="555.83" y="-384.1" font-family="Times,serif" font-size="14.00">contractsVaultLens.sol</text>
<polyline fill="none" stroke="black" points="434.12,-375.9 677.54,-375.9 "/>
<text text-anchor="start" x="442.12" y="-359.3" font-family="Times,serif" font-size="14.00">External:</text>
<text text-anchor="start" x="442.12" y="-342.5" font-family="Times,serif" font-size="14.00"> &#160;&#160;&#160;&#160;name(): string</text>
<text text-anchor="start" x="442.12" y="-325.7" font-family="Times,serif" font-size="14.00"> &#160;&#160;&#160;&#160;symbol(): string</text>
<text text-anchor="start" x="442.12" y="-308.9" font-family="Times,serif" font-size="14.00"> &#160;&#160;&#160;&#160;decimals(): uint8</text>
<text text-anchor="start" x="442.12" y="-292.1" font-family="Times,serif" font-size="14.00"> &#160;&#160;&#160;&#160;balanceOf(account: address): uint256</text>
</g>
<!-- 4 -->
<g id="node5" class="node">
<title>4</title>
<polygon fill="#f2f2f2" stroke="black" points="695.42,-275.5 695.42,-442.7 988.24,-442.7 988.24,-275.5 695.42,-275.5"/>
<text text-anchor="middle" x="841.83" y="-426.1" font-family="Times,serif" font-size="14.00">&lt;&lt;Interface&gt;&gt;</text>
<text text-anchor="middle" x="841.83" y="-409.3" font-family="Times,serif" font-size="14.00">IFarmVault</text>
<text text-anchor="middle" x="841.83" y="-392.5" font-family="Times,serif" font-size="14.00">contractsVaultLens.sol</text>
<polyline fill="none" stroke="black" points="695.42,-384.3 988.24,-384.3 "/>
<text text-anchor="start" x="703.42" y="-367.7" font-family="Times,serif" font-size="14.00">External:</text>
<text text-anchor="start" x="703.42" y="-350.9" font-family="Times,serif" font-size="14.00"> &#160;&#160;&#160;&#160;token(): address</text>
<text text-anchor="start" x="703.42" y="-334.1" font-family="Times,serif" font-size="14.00"> &#160;&#160;&#160;&#160;farmer(): address</text>
<text text-anchor="start" x="703.42" y="-317.3" font-family="Times,serif" font-size="14.00"> &#160;&#160;&#160;&#160;RELEASER_ROLE(): bytes32</text>
<text text-anchor="start" x="703.42" y="-300.5" font-family="Times,serif" font-size="14.00"> &#160;&#160;&#160;&#160;hasRole(role: bytes32, account: address): bool</text>
<text text-anchor="start" x="703.42" y="-283.7" font-family="Times,serif" font-size="14.00"> &#160;&#160;&#160;&#160;tokenBalance(): uint256</text>
</g>
<!-- 5 -->
<g id="node6" class="node">
<title>5</title>
<polygon fill="#f2f2f2" stroke="black" points="1006.22,-300.7 1006.22,-417.5 1229.45,-417.5 1229.45,-300.7 1006.22,-300.7"/>
<text text-anchor="middle" x="1117.83" y="-400.9" font-family="Times,serif" font-size="14.00">&lt;&lt;Interface&gt;&gt;</text>
<text text-anchor="middle" x="1117.83" y="-384.1" font-family="Times,serif" font-size="14.00">IFarmVaultFactory</text>
<text text-anchor="middle" x="1117.83" y="-367.3" font-family="Times,serif" font-size="14.00">contractsVaultLens.sol</text>
<polyline fill="none" stroke="black" points="1006.22,-359.1 1229.45,-359.1 "/>
<text text-anchor="start" x="1014.22" y="-342.5" font-family="Times,serif" font-size="14.00">External:</text>
<text text-anchor="start" x="1014.22" y="-325.7" font-family="Times,serif" font-size="14.00"> &#160;&#160;&#160;&#160;token(): address</text>
<text text-anchor="start" x="1014.22" y="-308.9" font-family="Times,serif" font-size="14.00"> &#160;&#160;&#160;&#160;vaultOf(farmId: uint256): address</text>
</g>
<!-- 6 -->
<g id="node7" class="node">
<title>6</title>
<polygon fill="#f2f2f2" stroke="black" points="1065.16,-4.5 1065.16,-188.5 1574.51,-188.5 1574.51,-4.5 1065.16,-4.5"/>
<text text-anchor="middle" x="1319.83" y="-171.9" font-family="Times,serif" font-size="14.00">VaultLens</text>
<text text-anchor="middle" x="1319.83" y="-155.1" font-family="Times,serif" font-size="14.00">contractsVaultLens.sol</text>
<polyline fill="none" stroke="black" points="1065.16,-146.9 1574.51,-146.9 "/>
<text text-anchor="start" x="1073.16" y="-130.3" font-family="Times,serif" font-size="14.00">External:</text>
<text text-anchor="start" x="1073.16" y="-113.5" font-family="Times,serif" font-size="14.00"> &#160;&#160;&#160;batchVaultInfo(factory: address, farmIds: uint256[], who: address): (out: VaultInfo[])</text>
<text text-anchor="start" x="1073.16" y="-96.7" font-family="Times,serif" font-size="14.00"> &#160;&#160;&#160;tokenMeta(token: address): (m: TokenMeta)</text>
<text text-anchor="start" x="1073.16" y="-79.9" font-family="Times,serif" font-size="14.00"> &#160;&#160;&#160;tokenBalanceOf(token: address, account: address): uint256</text>
<text text-anchor="start" x="1073.16" y="-63.1" font-family="Times,serif" font-size="14.00"> &#160;&#160;&#160;tokenBalancesOf(token: address, accounts: address[]): (balances: uint256[])</text>
<text text-anchor="start" x="1073.16" y="-46.3" font-family="Times,serif" font-size="14.00">Public:</text>
<text text-anchor="start" x="1073.16" y="-29.5" font-family="Times,serif" font-size="14.00"> &#160;&#160;&#160;vaultOf(factory: address, farmId: uint256): address</text>
<text text-anchor="start" x="1073.16" y="-12.7" font-family="Times,serif" font-size="14.00"> &#160;&#160;&#160;vaultInfo(vault: address, who: address): (v: VaultInfo)</text>
</g>
<!-- 6&#45;&gt;3 -->
<g id="edge8" class="edge">
<title>6&#45;&gt;3</title>
<path fill="none" stroke="black" stroke-dasharray="5,2" d="M1064.82,-183.39C1051.02,-186.9 1037.3,-190.14 1023.83,-193 876.49,-224.29 822.97,-164.53 686.83,-229 662.78,-240.39 640.5,-258.05 621.39,-276.69"/>
<polygon fill="black" stroke="black" points="618.81,-274.32 614.23,-283.87 623.77,-279.26 618.81,-274.32"/>
</g>
<!-- 6&#45;&gt;4 -->
<g id="edge6" class="edge">
<title>6&#45;&gt;4</title>
<path fill="none" stroke="black" stroke-dasharray="5,2" d="M1073.01,-188.65C1046.72,-201.09 1020.84,-214.59 996.83,-229 977.56,-240.57 958.22,-254.44 940.04,-268.75"/>
<polygon fill="black" stroke="black" points="937.41,-266.37 931.77,-275.35 941.77,-271.84 937.41,-266.37"/>
</g>
<!-- 6&#45;&gt;5 -->
<g id="edge4" class="edge">
<title>6&#45;&gt;5</title>
<path fill="none" stroke="black" stroke-dasharray="5,2" d="M1249.18,-188.65C1222.76,-222.73 1193.28,-260.76 1168.96,-292.14"/>
<polygon fill="black" stroke="black" points="1165.93,-290.34 1162.57,-300.39 1171.46,-294.63 1165.93,-290.34"/>
</g>
<!-- 7 -->
<g id="node8" class="node">
<title>7</title>
<polygon fill="#f2f2f2" stroke="black" points="1247.49,-300.7 1247.49,-417.5 1392.18,-417.5 1392.18,-300.7 1247.49,-300.7"/>
<text text-anchor="middle" x="1319.83" y="-400.9" font-family="Times,serif" font-size="14.00">&lt;&lt;Struct&gt;&gt;</text>
<text text-anchor="middle" x="1319.83" y="-384.1" font-family="Times,serif" font-size="14.00">TokenMeta</text>
<text text-anchor="middle" x="1319.83" y="-367.3" font-family="Times,serif" font-size="14.00">contractsVaultLens.sol</text>
<polyline fill="none" stroke="black" points="1247.49,-359.1 1392.18,-359.1 "/>
<text text-anchor="start" x="1255.49" y="-342.5" font-family="Times,serif" font-size="14.00">name_: string</text>
<text text-anchor="start" x="1255.49" y="-325.7" font-family="Times,serif" font-size="14.00">symbol_: string</text>
<text text-anchor="start" x="1255.49" y="-308.9" font-family="Times,serif" font-size="14.00">decimals_: uint8</text>
</g>
<!-- 6&#45;&gt;7 -->
<g id="edge7" class="edge">
<title>6&#45;&gt;7</title>
<path fill="none" stroke="black" stroke-dasharray="5,2" d="M1313.36,-188.65C1312.87,-222.01 1313.03,-259.15 1313.82,-290.13"/>
<polygon fill="black" stroke="black" points="1310.33,-290.5 1314.12,-300.39 1317.33,-290.29 1310.33,-290.5"/>
</g>
<!-- 8 -->
<g id="node9" class="node">
<title>8</title>
<polygon fill="#f2f2f2" stroke="black" points="1410.33,-283.9 1410.33,-434.3 1585.34,-434.3 1585.34,-283.9 1410.33,-283.9"/>
<text text-anchor="middle" x="1497.83" y="-417.7" font-family="Times,serif" font-size="14.00">&lt;&lt;Struct&gt;&gt;</text>
<text text-anchor="middle" x="1497.83" y="-400.9" font-family="Times,serif" font-size="14.00">VaultInfo</text>
<text text-anchor="middle" x="1497.83" y="-384.1" font-family="Times,serif" font-size="14.00">contractsVaultLens.sol</text>
<polyline fill="none" stroke="black" points="1410.33,-375.9 1585.34,-375.9 "/>
<text text-anchor="start" x="1418.33" y="-359.3" font-family="Times,serif" font-size="14.00">vault: address</text>
<text text-anchor="start" x="1418.33" y="-342.5" font-family="Times,serif" font-size="14.00">token: address</text>
<text text-anchor="start" x="1418.33" y="-325.7" font-family="Times,serif" font-size="14.00">farmer: address</text>
<text text-anchor="start" x="1418.33" y="-308.9" font-family="Times,serif" font-size="14.00">vaultTokenBalance: uint256</text>
<text text-anchor="start" x="1418.33" y="-292.1" font-family="Times,serif" font-size="14.00">isReleaser: bool</text>
</g>
<!-- 6&#45;&gt;8 -->
<g id="edge5" class="edge">
<title>6&#45;&gt;8</title>
<path fill="none" stroke="black" stroke-dasharray="5,2" d="M1375.62,-188.65C1394.47,-216.84 1415.62,-247.74 1434.97,-275.34"/>
<polygon fill="black" stroke="black" points="1432.3,-277.63 1440.92,-283.79 1438.03,-273.6 1432.3,-277.63"/>
</g>
<!-- 7&#45;&gt;6 -->
<g id="edge2" class="edge">
<title>7&#45;&gt;6</title>
<path fill="none" stroke="black" d="M1325.55,-300.39C1326.48,-271.18 1326.78,-234.82 1326.45,-200.98"/>
<polygon fill="black" stroke="black" points="1326.45,-200.64 1322.38,-194.69 1326.3,-188.65 1330.38,-194.6 1326.45,-200.64"/>
</g>
<!-- 8&#45;&gt;6 -->
<g id="edge3" class="edge">
<title>8&#45;&gt;6</title>
<path fill="none" stroke="black" d="M1453.24,-283.79C1435.73,-257.29 1415.16,-226.97 1395.48,-198.59"/>
<polygon fill="black" stroke="black" points="1395.41,-198.5 1388.7,-195.85 1388.56,-188.65 1395.27,-191.29 1395.41,-198.5"/>
</g>
</g>
</svg>
